<svg width="40" height="32" viewBox="0 0 40 32" fill="none" xmlns="http://www.w3.org/2000/svg">
<path fill-rule="evenodd" clip-rule="evenodd" d="M3.92874 8.17922C1.75823 8.17922 -0.000152588 6.43562 -0.000152588 4.28882C-0.000152588 2.14162 1.75823 0.400024 3.92874 0.400024C6.09924 0.400024 7.85803 2.14162 7.85803 4.28882C7.85803 6.43562 6.09924 8.17922 3.92874 8.17922ZM4.87926 31.6533C4.02876 31.6533 3.17785 31.3325 2.52936 30.6901C1.23118 29.4049 1.23118 27.3213 2.52936 26.0377C12.118 16.5433 27.7213 16.5433 37.3096 26.0357C38.6073 27.3209 38.6073 29.4037 37.3096 30.6889C36.0118 31.9733 33.9075 31.9733 32.6098 30.6889C25.6118 23.7613 14.2271 23.7613 7.22795 30.6901C6.58027 31.3325 5.72936 31.6533 4.87926 31.6533ZM31.9804 4.28882C31.9804 6.43562 33.7388 8.17922 35.9093 8.17922C38.0798 8.17922 39.8386 6.43562 39.8386 4.28882C39.8386 2.14162 38.0798 0.400024 35.9093 0.400024C33.7388 0.400024 31.9804 2.14162 31.9804 4.28882Z" fill="white"/>
</svg>
