<svg width="40" height="32" viewBox="0 0 40 32" fill="none" xmlns="http://www.w3.org/2000/svg">
<path fill-rule="evenodd" clip-rule="evenodd" d="M3.932 8.21627C1.75946 8.21627 -0.000152588 6.46251 -0.000152588 4.30252C-0.000152588 2.14251 1.75946 0.39032 3.932 0.39032C6.10455 0.39032 7.86455 2.14251 7.86455 4.30252C7.86455 6.46251 6.10455 8.21627 3.932 8.21627ZM34.9883 19.0182C35.8397 19.0182 36.6911 19.3409 37.3405 19.9872C38.6397 21.28 38.6397 23.3764 37.3405 24.6674C27.7436 34.2194 12.1271 34.2194 2.53106 24.6697C1.23224 23.3768 1.23224 21.2812 2.53106 19.9883C3.82989 18.6962 5.93577 18.6962 7.23459 19.9883C14.2385 26.9577 25.6326 26.9577 32.6377 19.9872C33.286 19.3409 34.1373 19.0182 34.9883 19.0182ZM32.0071 4.30252C32.0071 6.46251 33.7667 8.21627 35.9393 8.21627C38.1118 8.21627 39.8718 6.46251 39.8718 4.30252C39.8718 2.14251 38.1118 0.39032 35.9393 0.39032C33.7667 0.39032 32.0071 2.14251 32.0071 4.30252Z" fill="white"/>
</svg>
